# xmcd CD database file
#
# Track frame offsets:
#	150
#	16485
#	31742
#	46112
#	62620
#	79310
#	95085
#	110147
#	124935
#	139362
#	153680
#	168280
#
# Disc length: 2445 seconds
#
# Revision: 2
# Processed by: cddbd v1.5.2PL0 Copyright (c) Steve Scherf et al.
# Submitted via: CDex 1.99.1
#
DISCID=a3098b0c
DTITLE=Tommy Johnson - Tommy Johnson (1928-30) Complete Recordings in Chronological Order
DYEAR=1900
DGENRE=Blues
TTITLE0=Cool Drink of Water Blues
TTITLE1=Big Road Blues
TTITLE2=Bye-Bye Blues
TTITLE3=Maggie Campbell Blues
TTITLE4=Canned Heat Blues
TTITLE5=Lonesome Home Blues
TTITLE6=Lonesome Home Blues
TTITLE7=Big Fat Mama Blues
TTITLE8=I Wonder To Myself
TTITLE9=Slidin' Delta
TTITLE10=Lonesome Home Blues
TTITLE11=Black Mare Blues
EXTD=
EXTT0=
EXTT1=
EXTT2=
EXTT3=
EXTT4=
EXTT5=
EXTT6=
EXTT7=
EXTT8=
EXTT9=
EXTT10=
EXTT11=
PLAYORDER=
